  0
SECTION
  2
ENTITIES
  0
LINE
  8
0
 10
-1898.9185
 20
-10
 11
-1898.9185
 21
90.00
0
LINE
  8
0
 10
-377.4325
 20
-10
 11
-377.4325
 21
65.97
0
LINE
  8
0
 10
-3275.4802
 20
-10
 11
-3275.4802
 21
-0.26
0
LINE
  8
0
 10
798.1889
 20
-10
 11
798.1889
 21
46.12
0
LINE
  8
0
 10
-1533.6288
 20
-10
 11
-1533.6288
 21
4.84
0
LINE
  8
0
 10
-4431.6765
 20
-10
 11
-4431.6765
 21
-9.54
0
LINE
  8
0
 10
1647.2397
 20
-10
 11
1647.2397
 21
30.09
0
LINE
  8
0
 10
-141.9353
 20
-10
 11
-141.9353
 21
6.03
0
LINE
  8
0
 10
-2473.7530
 20
-10
 11
-2473.7530
 21
-8.98
0
LINE
  8
0
 10
2184.5529
 20
-10
 11
2184.5529
 21
17.55
0
LINE
  8
0
 10
919.6748
 20
-10
 11
919.6748
 21
3.99
0
LINE
  8
0
 10
-869.5002
 20
-10
 11
-869.5002
 21
-8.69
0
LINE
  8
0
 10
2420.5004
 20
-10
 11
2420.5004
 21
8.37
0
LINE
  8
0
 10
1666.8152
 20
-10
 11
1666.8152
 21
-0.82
0
LINE
  8
0
 10
401.9372
 20
-10
 11
401.9372
 21
-8.98
0
POLYLINE
  8
0
 66
     1
  0
VERTEX
  8
0
 10
-5782.9258
 20
0.01
0
VERTEX
  8
0
 10
-5763.7397
 20
0.01
0
VERTEX
  8
0
 10
-5744.5536
 20
0.01
0
VERTEX
  8
0
 10
-5725.3675
 20
0.01
0
VERTEX
  8
0
 10
-5706.1814
 20
0.01
0
VERTEX
  8
0
 10
-5686.9953
 20
0.01
0
VERTEX
  8
0
 10
-5667.8092
 20
0.01
0
VERTEX
  8
0
 10
-5648.6231
 20
0.01
0
VERTEX
  8
0
 10
-5629.4370
 20
0.01
0
VERTEX
  8
0
 10
-5610.2509
 20
0.01
0
VERTEX
  8
0
 10
-5591.0648
 20
0.01
0
VERTEX
  8
0
 10
-5571.8787
 20
0.02
0
VERTEX
  8
0
 10
-5552.6926
 20
0.02
0
VERTEX
  8
0
 10
-5533.5065
 20
0.02
0
VERTEX
  8
0
 10
-5514.3204
 20
0.02
0
VERTEX
  8
0
 10
-5495.1343
 20
0.02
0
VERTEX
  8
0
 10
-5475.9482
 20
0.02
0
VERTEX
  8
0
 10
-5456.7621
 20
0.02
0
VERTEX
  8
0
 10
-5437.5760
 20
0.02
0
VERTEX
  8
0
 10
-5418.3899
 20
0.02
0
VERTEX
  8
0
 10
-5399.2039
 20
0.02
0
VERTEX
  8
0
 10
-5380.0178
 20
0.02
0
VERTEX
  8
0
 10
-5360.8317
 20
0.02
0
VERTEX
  8
0
 10
-5341.6456
 20
0.02
0
VERTEX
  8
0
 10
-5322.4595
 20
0.02
0
VERTEX
  8
0
 10
-5303.2734
 20
0.02
0
VERTEX
  8
0
 10
-5284.0873
 20
0.02
0
VERTEX
  8
0
 10
-5264.9012
 20
0.02
0
VERTEX
  8
0
 10
-5245.7151
 20
0.02
0
VERTEX
  8
0
 10
-5226.5290
 20
0.02
0
VERTEX
  8
0
 10
-5207.3429
 20
0.02
0
VERTEX
  8
0
 10
-5188.1568
 20
0.02
0
VERTEX
  8
0
 10
-5168.9707
 20
0.02
0
VERTEX
  8
0
 10
-5149.7846
 20
0.02
0
VERTEX
  8
0
 10
-5130.5985
 20
0.02
0
VERTEX
  8
0
 10
-5111.4124
 20
0.02
0
VERTEX
  8
0
 10
-5092.2263
 20
0.02
0
VERTEX
  8
0
 10
-5073.0402
 20
0.02
0
VERTEX
  8
0
 10
-5053.8541
 20
0.02
0
VERTEX
  8
0
 10
-5034.6680
 20
0.02
0
VERTEX
  8
0
 10
-5015.4819
 20
0.02
0
VERTEX
  8
0
 10
-4996.2959
 20
0.02
0
VERTEX
  8
0
 10
-4977.1098
 20
0.02
0
VERTEX
  8
0
 10
-4957.9237
 20
0.02
0
VERTEX
  8
0
 10
-4938.7376
 20
0.02
0
VERTEX
  8
0
 10
-4919.5515
 20
0.02
0
VERTEX
  8
0
 10
-4900.3654
 20
0.02
0
VERTEX
  8
0
 10
-4881.1793
 20
0.02
0
VERTEX
  8
0
 10
-4861.9932
 20
0.02
0
VERTEX
  8
0
 10
-4842.8071
 20
0.02
0
VERTEX
  8
0
 10
-4823.6210
 20
0.02
0
VERTEX
  8
0
 10
-4804.4349
 20
0.02
0
VERTEX
  8
0
 10
-4785.2488
 20
0.02
0
VERTEX
  8
0
 10
-4766.0627
 20
0.02
0
VERTEX
  8
0
 10
-4746.8766
 20
0.02
0
VERTEX
  8
0
 10
-4727.6905
 20
0.02
0
VERTEX
  8
0
 10
-4708.5044
 20
0.02
0
VERTEX
  8
0
 10
-4689.3183
 20
0.02
0
VERTEX
  8
0
 10
-4670.1322
 20
0.02
0
VERTEX
  8
0
 10
-4650.9461
 20
0.02
0
VERTEX
  8
0
 10
-4631.7600
 20
0.02
0
VERTEX
  8
0
 10
-4612.5739
 20
0.02
0
VERTEX
  8
0
 10
-4593.3878
 20
0.03
0
VERTEX
  8
0
 10
-4574.2018
 20
0.03
0
VERTEX
  8
0
 10
-4555.0157
 20
0.03
0
VERTEX
  8
0
 10
-4535.8296
 20
0.03
0
VERTEX
  8
0
 10
-4516.6435
 20
0.03
0
VERTEX
  8
0
 10
-4497.4574
 20
0.04
0
VERTEX
  8
0
 10
-4478.2713
 20
0.05
0
VERTEX
  8
0
 10
-4459.0852
 20
0.09
0
VERTEX
  8
0
 10
-4439.8991
 20
0.37
0
VERTEX
  8
0
 10
-4420.7130
 20
0.29
0
VERTEX
  8
0
 10
-4401.5269
 20
0.08
0
VERTEX
  8
0
 10
-4382.3408
 20
0.05
0
VERTEX
  8
0
 10
-4363.1547
 20
0.04
0
VERTEX
  8
0
 10
-4343.9686
 20
0.03
0
VERTEX
  8
0
 10
-4324.7825
 20
0.03
0
VERTEX
  8
0
 10
-4305.5964
 20
0.03
0
VERTEX
  8
0
 10
-4286.4103
 20
0.03
0
VERTEX
  8
0
 10
-4267.2242
 20
0.03
0
VERTEX
  8
0
 10
-4248.0381
 20
0.03
0
VERTEX
  8
0
 10
-4228.8520
 20
0.03
0
VERTEX
  8
0
 10
-4209.6659
 20
0.03
0
VERTEX
  8
0
 10
-4190.4798
 20
0.03
0
VERTEX
  8
0
 10
-4171.2938
 20
0.03
0
VERTEX
  8
0
 10
-4152.1077
 20
0.03
0
VERTEX
  8
0
 10
-4132.9216
 20
0.03
0
VERTEX
  8
0
 10
-4113.7355
 20
0.03
0
VERTEX
  8
0
 10
-4094.5494
 20
0.03
0
VERTEX
  8
0
 10
-4075.3633
 20
0.03
0
VERTEX
  8
0
 10
-4056.1772
 20
0.03
0
VERTEX
  8
0
 10
-4036.9911
 20
0.03
0
VERTEX
  8
0
 10
-4017.8050
 20
0.03
0
VERTEX
  8
0
 10
-3998.6189
 20
0.03
0
VERTEX
  8
0
 10
-3979.4328
 20
0.03
0
VERTEX
  8
0
 10
-3960.2467
 20
0.03
0
VERTEX
  8
0
 10
-3941.0606
 20
0.03
0
VERTEX
  8
0
 10
-3921.8745
 20
0.04
0
VERTEX
  8
0
 10
-3902.6884
 20
0.04
0
VERTEX
  8
0
 10
-3883.5023
 20
0.04
0
VERTEX
  8
0
 10
-3864.3162
 20
0.04
0
VERTEX
  8
0
 10
-3845.1301
 20
0.04
0
VERTEX
  8
0
 10
-3825.9440
 20
0.04
0
VERTEX
  8
0
 10
-3806.7579
 20
0.04
0
VERTEX
  8
0
 10
-3787.5718
 20
0.04
0
VERTEX
  8
0
 10
-3768.3858
 20
0.04
0
VERTEX
  8
0
 10
-3749.1997
 20
0.04
0
VERTEX
  8
0
 10
-3730.0136
 20
0.04
0
VERTEX
  8
0
 10
-3710.8275
 20
0.04
0
VERTEX
  8
0
 10
-3691.6414
 20
0.04
0
VERTEX
  8
0
 10
-3672.4553
 20
0.04
0
VERTEX
  8
0
 10
-3653.2692
 20
0.05
0
VERTEX
  8
0
 10
-3634.0831
 20
0.05
0
VERTEX
  8
0
 10
-3614.8970
 20
0.05
0
VERTEX
  8
0
 10
-3595.7109
 20
0.05
0
VERTEX
  8
0
 10
-3576.5248
 20
0.05
0
VERTEX
  8
0
 10
-3557.3387
 20
0.06
0
VERTEX
  8
0
 10
-3538.1526
 20
0.06
0
VERTEX
  8
0
 10
-3518.9665
 20
0.06
0
VERTEX
  8
0
 10
-3499.7804
 20
0.07
0
VERTEX
  8
0
 10
-3480.5943
 20
0.07
0
VERTEX
  8
0
 10
-3461.4082
 20
0.08
0
VERTEX
  8
0
 10
-3442.2221
 20
0.09
0
VERTEX
  8
0
 10
-3423.0360
 20
0.10
0
VERTEX
  8
0
 10
-3403.8499
 20
0.12
0
VERTEX
  8
0
 10
-3384.6638
 20
0.15
0
VERTEX
  8
0
 10
-3365.4778
 20
0.19
0
VERTEX
  8
0
 10
-3346.2917
 20
0.28
0
VERTEX
  8
0
 10
-3327.1056
 20
0.49
0
VERTEX
  8
0
 10
-3307.9195
 20
1.10
0
VERTEX
  8
0
 10
-3288.7334
 20
4.47
0
VERTEX
  8
0
 10
-3269.5473
 20
9.05
0
VERTEX
  8
0
 10
-3250.3612
 20
1.72
0
VERTEX
  8
0
 10
-3231.1751
 20
0.64
0
VERTEX
  8
0
 10
-3211.9890
 20
0.35
0
VERTEX
  8
0
 10
-3192.8029
 20
0.23
0
VERTEX
  8
0
 10
-3173.6168
 20
0.17
0
VERTEX
  8
0
 10
-3154.4307
 20
0.14
0
VERTEX
  8
0
 10
-3135.2446
 20
0.12
0
VERTEX
  8
0
 10
-3116.0585
 20
0.10
0
VERTEX
  8
0
 10
-3096.8724
 20
0.09
0
VERTEX
  8
0
 10
-3077.6863
 20
0.09
0
VERTEX
  8
0
 10
-3058.5002
 20
0.08
0
VERTEX
  8
0
 10
-3039.3141
 20
0.08
0
VERTEX
  8
0
 10
-3020.1280
 20
0.08
0
VERTEX
  8
0
 10
-3000.9419
 20
0.08
0
VERTEX
  8
0
 10
-2981.7558
 20
0.08
0
VERTEX
  8
0
 10
-2962.5698
 20
0.08
0
VERTEX
  8
0
 10
-2943.3837
 20
0.08
0
VERTEX
  8
0
 10
-2924.1976
 20
0.08
0
VERTEX
  8
0
 10
-2905.0115
 20
0.08
0
VERTEX
  8
0
 10
-2885.8254
 20
0.08
0
VERTEX
  8
0
 10
-2866.6393
 20
0.08
0
VERTEX
  8
0
 10
-2847.4532
 20
0.08
0
VERTEX
  8
0
 10
-2828.2671
 20
0.08
0
VERTEX
  8
0
 10
-2809.0810
 20
0.08
0
VERTEX
  8
0
 10
-2789.8949
 20
0.08
0
VERTEX
  8
0
 10
-2770.7088
 20
0.08
0
VERTEX
  8
0
 10
-2751.5227
 20
0.08
0
VERTEX
  8
0
 10
-2732.3366
 20
0.09
0
VERTEX
  8
0
 10
-2713.1505
 20
0.09
0
VERTEX
  8
0
 10
-2693.9644
 20
0.09
0
VERTEX
  8
0
 10
-2674.7783
 20
0.09
0
VERTEX
  8
0
 10
-2655.5922
 20
0.09
0
VERTEX
  8
0
 10
-2636.4061
 20
0.10
0
VERTEX
  8
0
 10
-2617.2200
 20
0.10
0
VERTEX
  8
0
 10
-2598.0339
 20
0.11
0
VERTEX
  8
0
 10
-2578.8478
 20
0.11
0
VERTEX
  8
0
 10
-2559.6618
 20
0.12
0
VERTEX
  8
0
 10
-2540.4757
 20
0.13
0
VERTEX
  8
0
 10
-2521.2896
 20
0.16
0
VERTEX
  8
0
 10
-2502.1035
 20
0.25
0
VERTEX
  8
0
 10
-2482.9174
 20
0.81
0
VERTEX
  8
0
 10
-2463.7313
 20
0.76
0
VERTEX
  8
0
 10
-2444.5452
 20
0.26
0
VERTEX
  8
0
 10
-2425.3591
 20
0.18
0
VERTEX
  8
0
 10
-2406.1730
 20
0.16
0
VERTEX
  8
0
 10
-2386.9869
 20
0.15
0
VERTEX
  8
0
 10
-2367.8008
 20
0.15
0
VERTEX
  8
0
 10
-2348.6147
 20
0.16
0
VERTEX
  8
0
 10
-2329.4286
 20
0.16
0
VERTEX
  8
0
 10
-2310.2425
 20
0.17
0
VERTEX
  8
0
 10
-2291.0564
 20
0.18
0
VERTEX
  8
0
 10
-2271.8703
 20
0.19
0
VERTEX
  8
0
 10
-2252.6842
 20
0.20
0
VERTEX
  8
0
 10
-2233.4981
 20
0.21
0
VERTEX
  8
0
 10
-2214.3120
 20
0.23
0
VERTEX
  8
0
 10
-2195.1259
 20
0.25
0
VERTEX
  8
0
 10
-2175.9398
 20
0.27
0
VERTEX
  8
0
 10
-2156.7538
 20
0.30
0
VERTEX
  8
0
 10
-2137.5677
 20
0.33
0
VERTEX
  8
0
 10
-2118.3816
 20
0.37
0
VERTEX
  8
0
 10
-2099.1955
 20
0.43
0
VERTEX
  8
0
 10
-2080.0094
 20
0.50
0
VERTEX
  8
0
 10
-2060.8233
 20
0.60
0
VERTEX
  8
0
 10
-2041.6372
 20
0.73
0
VERTEX
  8
0
 10
-2022.4511
 20
0.94
0
VERTEX
  8
0
 10
-2003.2650
 20
1.27
0
VERTEX
  8
0
 10
-1984.0789
 20
1.83
0
VERTEX
  8
0
 10
-1964.8928
 20
2.94
0
VERTEX
  8
0
 10
-1945.7067
 20
5.60
0
VERTEX
  8
0
 10
-1926.5206
 20
14.65
0
VERTEX
  8
0
 10
-1907.3345
 20
73.32
0
VERTEX
  8
0
 10
-1888.1484
 20
58.02
0
VERTEX
  8
0
 10
-1868.9623
 20
12.69
0
VERTEX
  8
0
 10
-1849.7762
 20
5.13
0
VERTEX
  8
0
 10
-1830.5901
 20
2.79
0
VERTEX
  8
0
 10
-1811.4040
 20
1.79
0
VERTEX
  8
0
 10
-1792.2179
 20
1.27
0
VERTEX
  8
0
 10
-1773.0318
 20
0.97
0
VERTEX
  8
0
 10
-1753.8458
 20
0.79
0
VERTEX
  8
0
 10
-1734.6597
 20
0.67
0
VERTEX
  8
0
 10
-1715.4736
 20
0.60
0
VERTEX
  8
0
 10
-1696.2875
 20
0.55
0
VERTEX
  8
0
 10
-1677.1014
 20
0.52
0
VERTEX
  8
0
 10
-1657.9153
 20
0.52
0
VERTEX
  8
0
 10
-1638.7292
 20
0.54
0
VERTEX
  8
0
 10
-1619.5431
 20
0.60
0
VERTEX
  8
0
 10
-1600.3570
 20
0.75
0
VERTEX
  8
0
 10
-1581.1709
 20
1.11
0
VERTEX
  8
0
 10
-1561.9848
 20
2.37
0
VERTEX
  8
0
 10
-1542.7987
 20
10.39
0
VERTEX
  8
0
 10
-1523.6126
 20
9.57
0
VERTEX
  8
0
 10
-1504.4265
 20
2.26
0
VERTEX
  8
0
 10
-1485.2404
 20
1.07
0
VERTEX
  8
0
 10
-1466.0543
 20
0.71
0
VERTEX
  8
0
 10
-1446.8682
 20
0.56
0
VERTEX
  8
0
 10
-1427.6821
 20
0.48
0
VERTEX
  8
0
 10
-1408.4960
 20
0.44
0
VERTEX
  8
0
 10
-1389.3099
 20
0.41
0
VERTEX
  8
0
 10
-1370.1238
 20
0.40
0
VERTEX
  8
0
 10
-1350.9378
 20
0.39
0
VERTEX
  8
0
 10
-1331.7517
 20
0.39
0
VERTEX
  8
0
 10
-1312.5656
 20
0.39
0
VERTEX
  8
0
 10
-1293.3795
 20
0.39
0
VERTEX
  8
0
 10
-1274.1934
 20
0.40
0
VERTEX
  8
0
 10
-1255.0073
 20
0.41
0
VERTEX
  8
0
 10
-1235.8212
 20
0.42
0
VERTEX
  8
0
 10
-1216.6351
 20
0.43
0
VERTEX
  8
0
 10
-1197.4490
 20
0.44
0
VERTEX
  8
0
 10
-1178.2629
 20
0.45
0
VERTEX
  8
0
 10
-1159.0768
 20
0.47
0
VERTEX
  8
0
 10
-1139.8907
 20
0.49
0
VERTEX
  8
0
 10
-1120.7046
 20
0.50
0
VERTEX
  8
0
 10
-1101.5185
 20
0.52
0
VERTEX
  8
0
 10
-1082.3324
 20
0.55
0
VERTEX
  8
0
 10
-1063.1463
 20
0.57
0
VERTEX
  8
0
 10
-1043.9602
 20
0.60
0
VERTEX
  8
0
 10
-1024.7741
 20
0.63
0
VERTEX
  8
0
 10
-1005.5880
 20
0.66
0
VERTEX
  8
0
 10
-986.4019
 20
0.70
0
VERTEX
  8
0
 10
-967.2158
 20
0.74
0
VERTEX
  8
0
 10
-948.0298
 20
0.79
0
VERTEX
  8
0
 10
-928.8437
 20
0.85
0
VERTEX
  8
0
 10
-909.6576
 20
0.95
0
VERTEX
  8
0
 10
-890.4715
 20
1.21
0
VERTEX
  8
0
 10
-871.2854
 20
2.56
0
VERTEX
  8
0
 10
-852.0993
 20
1.45
0
VERTEX
  8
0
 10
-832.9132
 20
1.23
0
VERTEX
  8
0
 10
-813.7271
 20
1.25
0
VERTEX
  8
0
 10
-794.5410
 20
1.33
0
VERTEX
  8
0
 10
-775.3549
 20
1.44
0
VERTEX
  8
0
 10
-756.1688
 20
1.57
0
VERTEX
  8
0
 10
-736.9827
 20
1.72
0
VERTEX
  8
0
 10
-717.7966
 20
1.91
0
VERTEX
  8
0
 10
-698.6105
 20
2.14
0
VERTEX
  8
0
 10
-679.4244
 20
2.43
0
VERTEX
  8
0
 10
-660.2383
 20
2.80
0
VERTEX
  8
0
 10
-641.0522
 20
3.30
0
VERTEX
  8
0
 10
-621.8661
 20
4.00
0
VERTEX
  8
0
 10
-602.6800
 20
5.08
0
VERTEX
  8
0
 10
-583.4939
 20
7.00
0
VERTEX
  8
0
 10
-564.3078
 20
11.36
0
VERTEX
  8
0
 10
-545.1217
 20
27.20
0
VERTEX
  8
0
 10
-525.9357
 20
122.11
0
VERTEX
  8
0
 10
-506.7496
 20
39.56
0
VERTEX
  8
0
 10
-487.5635
 20
21.06
0
VERTEX
  8
0
 10
-468.3774
 20
23.15
0
VERTEX
  8
0
 10
-449.1913
 20
36.89
0
VERTEX
  8
0
 10
-430.0052
 20
84.95
0
VERTEX
  8
0
 10
-410.8191
 20
375.96
0
VERTEX
  8
0
 10
-391.6330
 20
452.63
0
VERTEX
  8
0
 10
-372.4469
 20
165.82
0
VERTEX
  8
0
 10
-353.2608
 20
52.95
0
VERTEX
  8
0
 10
-334.0747
 20
30.51
0
VERTEX
  8
0
 10
-314.8886
 20
25.20
0
VERTEX
  8
0
 10
-295.7025
 20
27.93
0
VERTEX
  8
0
 10
-276.5164
 20
42.25
0
VERTEX
  8
0
 10
-257.3303
 20
98.25
0
VERTEX
  8
0
 10
-238.1442
 20
476.62
0
VERTEX
  8
0
 10
-218.9581
 20
318.98
0
VERTEX
  8
0
 10
-199.7720
 20
78.24
0
VERTEX
  8
0
 10
-180.5859
 20
38.13
0
VERTEX
  8
0
 10
-161.3998
 20
29.27
0
VERTEX
  8
0
 10
-142.2137
 20
41.57
0
VERTEX
  8
0
 10
-123.0277
 20
26.38
0
VERTEX
  8
0
 10
-103.8416
 20
27.20
0
VERTEX
  8
0
 10
-84.6555
 20
35.37
0
VERTEX
  8
0
 10
-65.4694
 20
54.23
0
VERTEX
  8
0
 10
-46.2833
 20
101.66
0
VERTEX
  8
0
 10
-27.0972
 20
267.43
0
VERTEX
  8
0
 10
-7.9111
 20
1361.10
0
VERTEX
  8
0
 10
11.2750
 20
974.65
0
VERTEX
  8
0
 10
30.4611
 20
216.61
0
VERTEX
  8
0
 10
49.6472
 20
87.61
0
VERTEX
  8
0
 10
68.8333
 20
46.98
0
VERTEX
  8
0
 10
88.0194
 20
29.33
0
VERTEX
  8
0
 10
107.2055
 20
20.12
0
VERTEX
  8
0
 10
126.3916
 20
14.71
0
VERTEX
  8
0
 10
145.5777
 20
11.26
0
VERTEX
  8
0
 10
164.7638
 20
8.92
0
VERTEX
  8
0
 10
183.9499
 20
7.26
0
VERTEX
  8
0
 10
203.1360
 20
6.04
0
VERTEX
  8
0
 10
222.3221
 20
5.11
0
VERTEX
  8
0
 10
241.5082
 20
4.39
0
VERTEX
  8
0
 10
260.6943
 20
3.82
0
VERTEX
  8
0
 10
279.8803
 20
3.36
0
VERTEX
  8
0
 10
299.0664
 20
2.98
0
VERTEX
  8
0
 10
318.2525
 20
2.67
0
VERTEX
  8
0
 10
337.4386
 20
2.42
0
VERTEX
  8
0
 10
356.6247
 20
2.23
0
VERTEX
  8
0
 10
375.8108
 20
2.14
0
VERTEX
  8
0
 10
394.9969
 20
2.68
0
VERTEX
  8
0
 10
414.1830
 20
2.18
0
VERTEX
  8
0
 10
433.3691
 20
1.67
0
VERTEX
  8
0
 10
452.5552
 20
1.49
0
VERTEX
  8
0
 10
471.7413
 20
1.38
0
VERTEX
  8
0
 10
490.9274
 20
1.29
0
VERTEX
  8
0
 10
510.1135
 20
1.22
0
VERTEX
  8
0
 10
529.2996
 20
1.15
0
VERTEX
  8
0
 10
548.4857
 20
1.10
0
VERTEX
  8
0
 10
567.6718
 20
1.07
0
VERTEX
  8
0
 10
586.8579
 20
1.04
0
VERTEX
  8
0
 10
606.0440
 20
1.02
0
VERTEX
  8
0
 10
625.2301
 20
1.03
0
VERTEX
  8
0
 10
644.4162
 20
1.05
0
VERTEX
  8
0
 10
663.6023
 20
1.10
0
VERTEX
  8
0
 10
682.7883
 20
1.21
0
VERTEX
  8
0
 10
701.9744
 20
1.41
0
VERTEX
  8
0
 10
721.1605
 20
1.80
0
VERTEX
  8
0
 10
740.3466
 20
2.66
0
VERTEX
  8
0
 10
759.5327
 20
5.01
0
VERTEX
  8
0
 10
778.7188
 20
15.25
0
VERTEX
  8
0
 10
797.9049
 20
70.71
0
VERTEX
  8
0
 10
817.0910
 20
15.98
0
VERTEX
  8
0
 10
836.2771
 20
5.23
0
VERTEX
  8
0
 10
855.4632
 20
2.93
0
VERTEX
  8
0
 10
874.6493
 20
2.43
0
VERTEX
  8
0
 10
893.8354
 20
3.45
0
VERTEX
  8
0
 10
913.0215
 20
13.05
0
VERTEX
  8
0
 10
932.2076
 20
7.57
0
VERTEX
  8
0
 10
951.3937
 20
2.25
0
VERTEX
  8
0
 10
970.5798
 20
1.24
0
VERTEX
  8
0
 10
989.7659
 20
0.88
0
VERTEX
  8
0
 10
1008.9520
 20
0.71
0
VERTEX
  8
0
 10
1028.1381
 20
0.60
0
VERTEX
  8
0
 10
1047.3242
 20
0.54
0
VERTEX
  8
0
 10
1066.5103
 20
0.49
0
VERTEX
  8
0
 10
1085.6963
 20
0.45
0
VERTEX
  8
0
 10
1104.8824
 20
0.42
0
VERTEX
  8
0
 10
1124.0685
 20
0.39
0
VERTEX
  8
0
 10
1143.2546
 20
0.37
0
VERTEX
  8
0
 10
1162.4407
 20
0.36
0
VERTEX
  8
0
 10
1181.6268
 20
0.34
0
VERTEX
  8
0
 10
1200.8129
 20
0.33
0
VERTEX
  8
0
 10
1219.9990
 20
0.32
0
VERTEX
  8
0
 10
1239.1851
 20
0.31
0
VERTEX
  8
0
 10
1258.3712
 20
0.30
0
VERTEX
  8
0
 10
1277.5573
 20
0.30
0
VERTEX
  8
0
 10
1296.7434
 20
0.29
0
VERTEX
  8
0
 10
1315.9295
 20
0.29
0
VERTEX
  8
0
 10
1335.1156
 20
0.29
0
VERTEX
  8
0
 10
1354.3017
 20
0.29
0
VERTEX
  8
0
 10
1373.4878
 20
0.30
0
VERTEX
  8
0
 10
1392.6739
 20
0.30
0
VERTEX
  8
0
 10
1411.8600
 20
0.31
0
VERTEX
  8
0
 10
1431.0461
 20
0.33
0
VERTEX
  8
0
 10
1450.2322
 20
0.35
0
VERTEX
  8
0
 10
1469.4183
 20
0.38
0
VERTEX
  8
0
 10
1488.6043
 20
0.42
0
VERTEX
  8
0
 10
1507.7904
 20
0.48
0
VERTEX
  8
0
 10
1526.9765
 20
0.58
0
VERTEX
  8
0
 10
1546.1626
 20
0.74
0
VERTEX
  8
0
 10
1565.3487
 20
1.01
0
VERTEX
  8
0
 10
1584.5348
 20
1.57
0
VERTEX
  8
0
 10
1603.7209
 20
2.96
0
VERTEX
  8
0
 10
1622.9070
 20
7.97
0
VERTEX
  8
0
 10
1642.0931
 20
41.39
0
VERTEX
  8
0
 10
1661.2792
 20
25.81
0
VERTEX
  8
0
 10
1680.4653
 20
8.32
0
VERTEX
  8
0
 10
1699.6514
 20
2.88
0
VERTEX
  8
0
 10
1718.8375
 20
1.52
0
VERTEX
  8
0
 10
1738.0236
 20
0.97
0
VERTEX
  8
0
 10
1757.2097
 20
0.70
0
VERTEX
  8
0
 10
1776.3958
 20
0.54
0
VERTEX
  8
0
 10
1795.5819
 20
0.44
0
VERTEX
  8
0
 10
1814.7680
 20
0.38
0
VERTEX
  8
0
 10
1833.9541
 20
0.33
0
VERTEX
  8
0
 10
1853.1402
 20
0.30
0
VERTEX
  8
0
 10
1872.3263
 20
0.28
0
VERTEX
  8
0
 10
1891.5123
 20
0.26
0
VERTEX
  8
0
 10
1910.6984
 20
0.25
0
VERTEX
  8
0
 10
1929.8845
 20
0.24
0
VERTEX
  8
0
 10
1949.0706
 20
0.24
0
VERTEX
  8
0
 10
1968.2567
 20
0.24
0
VERTEX
  8
0
 10
1987.4428
 20
0.25
0
VERTEX
  8
0
 10
2006.6289
 20
0.26
0
VERTEX
  8
0
 10
2025.8150
 20
0.29
0
VERTEX
  8
0
 10
2045.0011
 20
0.32
0
VERTEX
  8
0
 10
2064.1872
 20
0.38
0
VERTEX
  8
0
 10
2083.3733
 20
0.47
0
VERTEX
  8
0
 10
2102.5594
 20
0.64
0
VERTEX
  8
0
 10
2121.7455
 20
0.99
0
VERTEX
  8
0
 10
2140.9316
 20
1.86
0
VERTEX
  8
0
 10
2160.1177
 20
5.08
0
VERTEX
  8
0
 10
2179.3038
 20
27.14
0
VERTEX
  8
0
 10
2198.4899
 20
11.85
0
VERTEX
  8
0
 10
2217.6760
 20
3.03
0
VERTEX
  8
0
 10
2236.8621
 20
1.38
0
VERTEX
  8
0
 10
2256.0482
 20
0.84
0
VERTEX
  8
0
 10
2275.2343
 20
0.61
0
VERTEX
  8
0
 10
2294.4203
 20
0.51
0
VERTEX
  8
0
 10
2313.6064
 20
0.49
0
VERTEX
  8
0
 10
2332.7925
 20
0.53
0
VERTEX
  8
0
 10
2351.9786
 20
0.68
0
VERTEX
  8
0
 10
2371.1647
 20
1.08
0
VERTEX
  8
0
 10
2390.3508
 20
2.43
0
VERTEX
  8
0
 10
2409.5369
 20
10.57
0
VERTEX
  8
0
 10
2428.7230
 20
13.83
0
VERTEX
  8
0
 10
2447.9091
 20
2.82
0
VERTEX
  8
0
 10
2467.0952
 20
1.13
0
VERTEX
  8
0
 10
2486.2813
 20
0.63
0
VERTEX
  8
0
 10
2505.4674
 20
0.42
0
VERTEX
  8
0
 10
2524.6535
 20
0.31
0
VERTEX
  8
0
 10
2543.8396
 20
0.24
0
VERTEX
  8
0
 10
2563.0257
 20
0.20
0
VERTEX
  8
0
 10
2582.2118
 20
0.17
0
VERTEX
  8
0
 10
2601.3979
 20
0.15
0
VERTEX
  8
0
 10
2620.5840
 20
0.14
0
VERTEX
  8
0
 10
2639.7701
 20
0.13
0
VERTEX
  8
0
 10
2658.9562
 20
0.12
0
VERTEX
  8
0
 10
2678.1423
 20
0.11
0
VERTEX
  8
0
 10
2697.3283
 20
0.10
0
VERTEX
  8
0
 10
2716.5144
 20
0.10
0
VERTEX
  8
0
 10
2735.7005
 20
0.09
0
VERTEX
  8
0
 10
2754.8866
 20
0.09
0
VERTEX
  8
0
 10
2774.0727
 20
0.08
0
VERTEX
  8
0
 10
2793.2588
 20
0.08
0
VERTEX
  8
0
 10
2812.4449
 20
0.08
0
VERTEX
  8
0
 10
2831.6310
 20
0.07
0
VERTEX
  8
0
 10
2850.8171
 20
0.07
0
VERTEX
  8
0
 10
2870.0032
 20
0.07
0
VERTEX
  8
0
 10
2889.1893
 20
0.07
0
VERTEX
  8
0
 10
2908.3754
 20
0.07
0
VERTEX
  8
0
 10
2927.5615
 20
0.06
0
VERTEX
  8
0
 10
2946.7476
 20
0.06
0
VERTEX
  8
0
 10
2965.9337
 20
0.06
0
VERTEX
  8
0
 10
2985.1198
 20
0.06
0
VERTEX
  8
0
 10
3004.3059
 20
0.06
0
VERTEX
  8
0
 10
3023.4920
 20
0.06
0
VERTEX
  8
0
 10
3042.6781
 20
0.06
0
VERTEX
  8
0
 10
3061.8642
 20
0.05
0
VERTEX
  8
0
 10
3081.0503
 20
0.05
0
VERTEX
  8
0
 10
3100.2363
 20
0.05
0
VERTEX
  8
0
 10
3119.4224
 20
0.05
0
VERTEX
  8
0
 10
3138.6085
 20
0.05
0
VERTEX
  8
0
 10
3157.7946
 20
0.05
0
VERTEX
  8
0
 10
3176.9807
 20
0.05
0
VERTEX
  8
0
 10
3196.1668
 20
0.05
0
VERTEX
  8
0
 10
3215.3529
 20
0.05
0
VERTEX
  8
0
 10
3234.5390
 20
0.05
0
VERTEX
  8
0
 10
3253.7251
 20
0.05
0
VERTEX
  8
0
 10
3272.9112
 20
0.04
0
VERTEX
  8
0
 10
3292.0973
 20
0.04
0
VERTEX
  8
0
 10
3311.2834
 20
0.04
0
VERTEX
  8
0
 10
3330.4695
 20
0.04
0
VERTEX
  8
0
 10
3349.6556
 20
0.04
0
VERTEX
  8
0
 10
3368.8417
 20
0.04
0
VERTEX
  8
0
 10
3388.0278
 20
0.04
0
VERTEX
  8
0
 10
3407.2139
 20
0.04
0
VERTEX
  8
0
 10
3426.4000
 20
0.04
0
VERTEX
  8
0
 10
3445.5861
 20
0.04
0
VERTEX
  8
0
 10
3464.7722
 20
0.04
0
VERTEX
  8
0
 10
3483.9583
 20
0.04
0
VERTEX
  8
0
 10
3503.1444
 20
0.04
0
VERTEX
  8
0
 10
3522.3304
 20
0.04
0
VERTEX
  8
0
 10
3541.5165
 20
0.04
0
VERTEX
  8
0
 10
3560.7026
 20
0.04
0
VERTEX
  8
0
 10
3579.8887
 20
0.04
0
VERTEX
  8
0
 10
3599.0748
 20
0.03
0
VERTEX
  8
0
 10
3618.2609
 20
0.03
0
VERTEX
  8
0
 10
3637.4470
 20
0.03
0
VERTEX
  8
0
 10
3656.6331
 20
0.03
0
VERTEX
  8
0
 10
3675.8192
 20
0.03
0
VERTEX
  8
0
 10
3695.0053
 20
0.03
0
VERTEX
  8
0
 10
3714.1914
 20
0.03
0
VERTEX
  8
0
 10
3733.3775
 20
0.03
0
VERTEX
  8
0
 10
3752.5636
 20
0.03
0
SEQEND
  8
0
  0
LINE
  8
0
 10
-5782.9258
 20
-10
 11
3752.5636
 21
-10
0
ENDSEC
  0
EOF
